<?xml version="1.0" encoding="UTF-8"?>
<svg id="Layer_2" data-name="Layer 2" xmlns="http://www.w3.org/2000/svg" viewBox="0 0 224.69 154.97">
  <defs>
    <style>
      .cls-1 {
        fill: #009fde;
      }

      .cls-2 {
        fill: #c0cbd6;
      }

      .cls-3 {
        fill: #41a6dc;
      }

      .cls-4 {
        letter-spacing: -.06em;
      }

      .cls-5 {
        letter-spacing: -.05em;
      }

      .cls-6 {
        fill: #242020;
        font-family: Montserrat-Regular, Montserrat;
        font-size: 76.66px;
      }
    </style>
  </defs>
  <g id="Camada_1" data-name="Camada 1">
    <g>
      <text class="cls-6" transform="translate(0 134.88)"><tspan class="cls-5" x="0" y="0">ig</tspan><tspan class="cls-4" x="65.54" y="0">r</tspan><tspan class="cls-5" x="91.84" y="0">p</tspan></text>
      <g>
        <path class="cls-2" d="M224.58,58.5c-1.6-7.01-12.29-15.34-78.53-3.84,0-10.69.12-17.99,0-36.19-.09-12.83-6.62-22.03-17.93-17.12-22.33,9.68-43.09,36.58-55.23,59.81-3.78,7.23-1.18,20.28,9.8,19.55,18.85-1.24,32.88-7.74,51.21-11.6,1.13,10.61,9.92,27.07,24.6,26.77,34.89-.72,68.41-27.15,66.08-37.38ZM132.13,57.37c-8.13,1.09-28.42,5.53-46.09,10.51-.7.2-1.35-.44-1.18-1.15,2.26-9.23,11.75-20.59,16.73-26.57,6.54-7.85,19.94-22.35,30.55-27.17-.64,10.45-.8,32.8,0,44.37ZM207.54,63.64c-6.91,6.59-32.01,18.88-45.18,19.94-9.04.73-16.51-8.64-16.19-16.84,10.51-4.48,46.49-5.36,60.8-5.35,2.5,0,1.08,1.76.56,2.25Z"/>
        <path class="cls-3" d="M127,10.43c-33.6,14.47-43.89,32.64-54.1,50.67-4.02,7.1-1.18,20.28,9.8,19.55,18.86-1.24,32.88-7.74,51.21-11.6l-1.77-11.74c-8.13,1.09-28.42,5.53-46.09,10.51-.7.2-1.35-.44-1.18-1.15,2.26-9.23,11.75-20.59,16.73-26.57,6.54-7.85,19.94-22.35,30.55-27.17,0,0-.36-4.58-5.14-2.52Z"/>
        <path class="cls-3" d="M206.15,49.29c-1.13-.09-2.35-.16-3.63-.21-.11,0-.23,0-.35-.01-.32-.01-.63-.03-.96-.03-.74-.02-1.51-.03-2.3-.04-.12,0-.23,0-.35,0-.59,0-1.2,0-1.82,0-.26,0-.51,0-.78,0,0,0,0,0,0,0-1.66.03-3.41.09-5.25.18-10.99.52-25.51,2.19-44.67,5.51l.12,12.09c7.86-3.35,29.8-4.71,46.35-5.18,0,0,0,.02.01.03,5.72-.16,10.81-.22,14.47-.21,2.5,0,1.08,1.76.56,2.25-.43.41-.92.83-1.48,1.28,2.52-1.7,4.19-4.58,4.19-7.85s-1.64-6.11-4.13-7.81Z"/>
        <g>
          <path class="cls-1" d="M206.98,61.39c-.47-1.87-12.45-6.81-29.76-5.85-12.4.69-22.32,1.28-31.14,2l.09,8.98c13.08-2.78,30.36-5.23,60.82-5.13Z"/>
          <path class="cls-1" d="M85.91,67.87c-2.43,3.7,17.34,6.66,27.91,5.42,7.48-.87,13.61-2.32,20.13-3.91l-1.58-10.49c-14.15,1.67-27.14,4.21-46.46,8.98Z"/>
        </g>
      </g>
    </g>
  </g>
</svg>